# Blender v2.79 (sub 0) OBJ File: 'Stick.blend'
# www.blender.org
mtllib Stick.mtl
o Cylinder
v 0.000000 -1.000000 -0.575672
v 0.000000 1.000000 -0.575672
v 0.049068 -1.000000 -0.574468
v 0.049068 1.000000 -0.574468
v 0.098017 -1.000000 -0.570857
v 0.098017 1.000000 -0.570857
v 0.146731 -1.000000 -0.564849
v 0.146731 1.000000 -0.564849
v 0.195090 -1.000000 -0.556458
v 0.195090 1.000000 -0.556458
v 0.242980 -1.000000 -0.545704
v 0.242980 1.000000 -0.545704
v 0.290285 -1.000000 -0.532613
v 0.290285 1.000000 -0.532613
v 0.336890 -1.000000 -0.517217
v 0.336890 1.000000 -0.517217
v 0.382684 -1.000000 -0.499552
v 0.382684 1.000000 -0.499552
v 0.427555 -1.000000 -0.479662
v 0.427555 1.000000 -0.479662
v 0.471397 -1.000000 -0.457594
v 0.471397 1.000000 -0.457594
v 0.514103 -1.000000 -0.433401
v 0.514103 1.000000 -0.433401
v 0.555570 -1.000000 -0.407142
v 0.555570 1.000000 -0.407142
v 0.595700 -1.000000 -0.378880
v 0.595700 1.000000 -0.378880
v 0.634394 -1.000000 -0.348683
v 0.634394 1.000000 -0.348683
v 0.671559 -1.000000 -0.316624
v 0.671559 1.000000 -0.316624
v 0.707107 -1.000000 -0.282779
v 0.707107 1.000000 -0.282779
v 0.740951 -1.000000 -0.247231
v 0.740951 1.000000 -0.247231
v 0.773011 -1.000000 -0.210066
v 0.773011 1.000000 -0.210066
v 0.803208 -1.000000 -0.171372
v 0.803208 1.000000 -0.171372
v 0.831470 -1.000000 -0.131243
v 0.831470 1.000000 -0.131243
v 0.857729 -1.000000 -0.089775
v 0.857729 1.000000 -0.089775
v 0.881922 -1.000000 -0.047069
v 0.881922 1.000000 -0.047069
v 0.903990 -1.000000 -0.003227
v 0.903990 1.000000 -0.003227
v 0.923880 -1.000000 0.041644
v 0.923880 1.000000 0.041644
v 0.941544 -1.000000 0.087438
v 0.941544 1.000000 0.087438
v 0.956941 -1.000000 0.134043
v 0.956941 1.000000 0.134043
v 0.970032 -1.000000 0.181348
v 0.970032 1.000000 0.181348
v 0.980786 -1.000000 0.229237
v 0.980786 1.000000 0.229237
v 0.989177 -1.000000 0.277597
v 0.989177 1.000000 0.277597
v 0.995185 -1.000000 0.326311
v 0.995185 1.000000 0.326311
v 0.998796 -1.000000 0.375260
v 0.998796 1.000000 0.375260
v 1.000000 -1.000000 0.424328
v 1.000000 1.000000 0.424328
v -1.000000 -1.000000 0.424329
v -1.000000 1.000000 0.424329
v -0.998795 -1.000000 0.375261
v -0.998795 1.000000 0.375261
v -0.995185 -1.000000 0.326311
v -0.995185 1.000000 0.326311
v -0.989176 -1.000000 0.277598
v -0.989176 1.000000 0.277598
v -0.980785 -1.000000 0.229238
v -0.980785 1.000000 0.229238
v -0.970031 -1.000000 0.181348
v -0.970031 1.000000 0.181348
v -0.956940 -1.000000 0.134043
v -0.956940 1.000000 0.134043
v -0.941544 -1.000000 0.087438
v -0.941544 1.000000 0.087438
v -0.923879 -1.000000 0.041644
v -0.923879 1.000000 0.041644
v -0.903989 -1.000000 -0.003227
v -0.903989 1.000000 -0.003227
v -0.881921 -1.000000 -0.047069
v -0.881921 1.000000 -0.047069
v -0.857728 -1.000000 -0.089775
v -0.857728 1.000000 -0.089775
v -0.831469 -1.000000 -0.131243
v -0.831469 1.000000 -0.131243
v -0.803207 -1.000000 -0.171372
v -0.803207 1.000000 -0.171372
v -0.773010 -1.000000 -0.210066
v -0.773010 1.000000 -0.210066
v -0.740950 -1.000000 -0.247232
v -0.740950 1.000000 -0.247232
v -0.707106 -1.000000 -0.282780
v -0.707106 1.000000 -0.282780
v -0.671558 -1.000000 -0.316624
v -0.671558 1.000000 -0.316624
v -0.634392 -1.000000 -0.348684
v -0.634392 1.000000 -0.348684
v -0.595698 -1.000000 -0.378881
v -0.595698 1.000000 -0.378881
v -0.555569 -1.000000 -0.407143
v -0.555569 1.000000 -0.407143
v -0.514101 -1.000000 -0.433402
v -0.514101 1.000000 -0.433402
v -0.471395 -1.000000 -0.457595
v -0.471395 1.000000 -0.457595
v -0.427553 -1.000000 -0.479663
v -0.427553 1.000000 -0.479663
v -0.382681 -1.000000 -0.499553
v -0.382681 1.000000 -0.499553
v -0.336888 -1.000000 -0.517217
v -0.336888 1.000000 -0.517217
v -0.290282 -1.000000 -0.532613
v -0.290282 1.000000 -0.532613
v -0.242978 -1.000000 -0.545704
v -0.242978 1.000000 -0.545704
v -0.195088 -1.000000 -0.556458
v -0.195088 1.000000 -0.556458
v -0.146728 -1.000000 -0.564849
v -0.146728 1.000000 -0.564849
v -0.098014 -1.000000 -0.570857
v -0.098014 1.000000 -0.570857
v -0.049065 -1.000000 -0.574468
v -0.049065 1.000000 -0.574468
vt 0.000000 0.000000
vt 0.000000 0.000000
vt 0.000000 0.000000
vt 0.000000 0.000000
vt 0.000000 0.000000
vt 0.000000 0.000000
vt 0.000000 0.000000
vt 0.000000 0.000000
vt 0.000000 0.000000
vt 0.000000 0.000000
vt 0.000000 0.000000
vt 0.000000 0.000000
vt 0.000000 0.000000
vt 0.000000 0.000000
vt 0.000000 0.000000
vt 0.000000 0.000000
vt 0.000000 0.000000
vt 0.000000 0.000000
vt 0.000000 0.000000
vt 0.000000 0.000000
vt 0.000000 0.000000
vt 0.000000 0.000000
vt 0.000000 0.000000
vt 0.000000 0.000000
vt 0.000000 0.000000
vt 0.000000 0.000000
vt 0.000000 0.000000
vt 0.000000 0.000000
vt 0.000000 0.000000
vt 0.000000 0.000000
vt 0.000000 0.000000
vt 0.000000 0.000000
vt 0.000000 0.000000
vt 0.000000 0.000000
vt 0.000000 0.000000
vt 0.000000 0.000000
vt 0.000000 0.000000
vt 0.000000 0.000000
vt 0.000000 0.000000
vt 0.000000 0.000000
vt 0.000000 0.000000
vt 0.000000 0.000000
vt 0.000000 0.000000
vt 0.000000 0.000000
vt 0.000000 0.000000
vt 0.000000 0.000000
vt 0.000000 0.000000
vt 0.000000 0.000000
vt 0.000000 0.000000
vt 0.000000 0.000000
vt 0.000000 0.000000
vt 0.000000 0.000000
vt 0.000000 0.000000
vt 0.000000 0.000000
vt 0.000000 0.000000
vt 0.000000 0.000000
vt 0.000000 0.000000
vt 0.000000 0.000000
vt 0.000000 0.000000
vt 0.000000 0.000000
vt 0.000000 0.000000
vt 0.000000 0.000000
vt 0.000000 0.000000
vt 0.000000 0.000000
vt 0.000000 0.000000
vt 0.000000 0.000000
vt 0.000000 0.000000
vt 0.000000 0.000000
vt 0.000000 0.000000
vt 0.000000 0.000000
vt 0.000000 0.000000
vt 0.000000 0.000000
vt 0.000000 0.000000
vt 0.000000 0.000000
vt 0.000000 0.000000
vt 0.000000 0.000000
vt 0.000000 0.000000
vt 0.000000 0.000000
vt 0.000000 0.000000
vt 0.000000 0.000000
vt 0.000000 0.000000
vt 0.000000 0.000000
vt 0.000000 0.000000
vt 0.000000 0.000000
vt 0.000000 0.000000
vt 0.000000 0.000000
vt 0.000000 0.000000
vt 0.000000 0.000000
vt 0.000000 0.000000
vt 0.000000 0.000000
vt 0.000000 0.000000
vt 0.000000 0.000000
vt 0.000000 0.000000
vt 0.000000 0.000000
vt 0.000000 0.000000
vt 0.000000 0.000000
vt 0.000000 0.000000
vt 0.000000 0.000000
vt 0.000000 0.000000
vt 0.000000 0.000000
vt 0.000000 0.000000
vt 0.000000 0.000000
vt 0.000000 0.000000
vt 0.000000 0.000000
vt 0.000000 0.000000
vt 0.000000 0.000000
vt 0.000000 0.000000
vt 0.000000 0.000000
vt 0.000000 0.000000
vt 0.000000 0.000000
vt 0.000000 0.000000
vt 0.000000 0.000000
vt 0.000000 0.000000
vt 0.000000 0.000000
vt 0.000000 0.000000
vt 0.000000 0.000000
vt 0.000000 0.000000
vt 0.000000 0.000000
vt 0.000000 0.000000
vt 0.000000 0.000000
vt 0.000000 0.000000
vt 0.000000 0.000000
vt 0.000000 0.000000
vt 0.000000 0.000000
vt 0.000000 0.000000
vt 0.000000 0.000000
vt 0.000000 0.000000
vt 0.000000 0.000000
vt 0.000000 0.000000
vt 0.000000 0.000000
vt 0.500000 0.636660
vt 0.499999 0.000081
vt 0.515622 0.000081
vt 0.515622 0.636660
vt 0.531244 0.000081
vt 0.531245 0.636660
vt 0.546867 0.000081
vt 0.546867 0.636660
vt 0.562489 0.000081
vt 0.562490 0.636660
vt 0.578112 0.000081
vt 0.578112 0.636660
vt 0.593734 0.000081
vt 0.593735 0.636660
vt 0.609357 0.000081
vt 0.609357 0.636660
vt 0.624979 0.000081
vt 0.624980 0.636660
vt 0.640601 0.000081
vt 0.640602 0.636660
vt 0.656224 0.000081
vt 0.656225 0.636659
vt 0.671846 0.000081
vt 0.671847 0.636659
vt 0.687469 0.000081
vt 0.687470 0.636659
vt 0.703091 0.000081
vt 0.703093 0.636659
vt 0.718714 0.000081
vt 0.718715 0.636659
vt 0.734336 0.000081
vt 0.734338 0.636659
vt 0.749959 0.000081
vt 0.749960 0.636659
vt 0.765581 0.000081
vt 0.765583 0.636659
vt 0.781204 0.000081
vt 0.781205 0.636659
vt 0.796826 0.000081
vt 0.796828 0.636659
vt 0.812448 0.000081
vt 0.812450 0.636659
vt 0.828071 0.000080
vt 0.828073 0.636659
vt 0.843693 0.000080
vt 0.843695 0.636659
vt 0.859316 0.000080
vt 0.859318 0.636659
vt 0.874938 0.000080
vt 0.874940 0.636659
vt 0.890561 0.000080
vt 0.890563 0.636659
vt 0.906183 0.000080
vt 0.906185 0.636659
vt 0.921806 0.000080
vt 0.921808 0.636659
vt 0.937428 0.000080
vt 0.937430 0.636658
vt 0.953051 0.000080
vt 0.953053 0.636658
vt 0.968673 0.000080
vt 0.968675 0.636658
vt 0.984296 0.000080
vt 0.984298 0.636658
vt 0.999918 0.000080
vt 0.999920 0.636658
vt 0.000080 0.636660
vt 0.000081 0.000081
vt 0.015704 0.000081
vt 0.015702 0.636660
vt 0.031326 0.000081
vt 0.031325 0.636660
vt 0.046949 0.000081
vt 0.046947 0.636660
vt 0.062571 0.000081
vt 0.062570 0.636660
vt 0.078194 0.000081
vt 0.078192 0.636660
vt 0.093816 0.000081
vt 0.093815 0.636660
vt 0.109439 0.000081
vt 0.109437 0.636660
vt 0.125061 0.000081
vt 0.125060 0.636660
vt 0.140684 0.000081
vt 0.140682 0.636660
vt 0.156306 0.000081
vt 0.156305 0.636660
vt 0.171929 0.000081
vt 0.171927 0.636660
vt 0.187551 0.000081
vt 0.187550 0.636660
vt 0.203173 0.000081
vt 0.203172 0.636660
vt 0.218796 0.000081
vt 0.218795 0.636660
vt 0.234418 0.000081
vt 0.234417 0.636660
vt 0.250041 0.000081
vt 0.250040 0.636660
vt 0.265663 0.000081
vt 0.265662 0.636660
vt 0.281286 0.000081
vt 0.281285 0.636660
vt 0.296908 0.000081
vt 0.296907 0.636660
vt 0.312531 0.000081
vt 0.312530 0.636660
vt 0.328153 0.000081
vt 0.328152 0.636660
vt 0.343776 0.000081
vt 0.343775 0.636660
vt 0.359398 0.000081
vt 0.359397 0.636660
vt 0.375021 0.000081
vt 0.375020 0.636660
vt 0.390643 0.000081
vt 0.390642 0.636660
vt 0.406265 0.000081
vt 0.406265 0.636660
vt 0.421888 0.000081
vt 0.421887 0.636660
vt 0.437510 0.000081
vt 0.437510 0.636660
vt 0.453133 0.000081
vt 0.453132 0.636660
vt 0.468755 0.000081
vt 0.468755 0.636660
vt 0.484378 0.000081
vt 0.484377 0.636660
vn 0.0000 -1.0000 -0.0000
vn 0.0000 1.0000 0.0000
vn 0.0000 -0.7016 -0.7125
vn 0.0000 0.7016 -0.7125
vn 0.0349 0.7016 -0.7117
vn 0.0349 -0.7016 -0.7117
vn 0.0698 0.7016 -0.7091
vn 0.0698 -0.7016 -0.7091
vn 0.1045 0.7016 -0.7048
vn 0.1045 -0.7016 -0.7048
vn 0.1390 0.7016 -0.6988
vn 0.1390 -0.7016 -0.6988
vn 0.1731 0.7016 -0.6912
vn 0.1731 -0.7016 -0.6912
vn 0.2068 0.7016 -0.6818
vn 0.2068 -0.7016 -0.6818
vn 0.2400 0.7016 -0.6709
vn 0.2400 -0.7016 -0.6709
vn 0.2727 0.7016 -0.6583
vn 0.2727 -0.7016 -0.6583
vn 0.3046 0.7016 -0.6441
vn 0.3046 -0.7016 -0.6441
vn 0.3359 0.7016 -0.6284
vn 0.3359 -0.7016 -0.6284
vn 0.3663 0.7016 -0.6112
vn 0.3663 -0.7016 -0.6112
vn 0.3959 0.7016 -0.5925
vn 0.3959 -0.7016 -0.5925
vn 0.4245 0.7016 -0.5723
vn 0.4245 -0.7016 -0.5723
vn 0.4520 0.7016 -0.5508
vn 0.4520 -0.7016 -0.5508
vn 0.4785 0.7016 -0.5279
vn 0.4785 -0.7016 -0.5279
vn 0.5038 0.7016 -0.5038
vn 0.5038 -0.7016 -0.5038
vn 0.5279 0.7016 -0.4785
vn 0.5279 -0.7016 -0.4785
vn 0.5508 0.7016 -0.4520
vn 0.5508 -0.7016 -0.4520
vn 0.5723 0.7016 -0.4245
vn 0.5723 -0.7016 -0.4245
vn 0.5925 0.7016 -0.3959
vn 0.5925 -0.7016 -0.3959
vn 0.6112 0.7016 -0.3663
vn 0.6112 -0.7016 -0.3663
vn 0.6284 0.7016 -0.3359
vn 0.6284 -0.7016 -0.3359
vn 0.6441 0.7016 -0.3046
vn 0.6441 -0.7016 -0.3046
vn 0.6583 0.7016 -0.2727
vn 0.6583 -0.7016 -0.2727
vn 0.6709 0.7016 -0.2400
vn 0.6709 -0.7016 -0.2400
vn 0.6818 0.7016 -0.2068
vn 0.6818 -0.7016 -0.2068
vn 0.6912 0.7016 -0.1731
vn 0.6912 -0.7016 -0.1731
vn 0.6988 0.7016 -0.1390
vn 0.6988 -0.7016 -0.1390
vn 0.7048 0.7016 -0.1045
vn 0.7048 -0.7016 -0.1045
vn 0.7091 0.7016 -0.0698
vn 0.7091 -0.7016 -0.0698
vn 0.7117 0.7016 -0.0349
vn 0.7117 -0.7016 -0.0349
vn 0.5850 0.5761 0.5708
vn 0.5850 -0.5761 0.5708
vn -0.5850 -0.5761 0.5708
vn -0.5850 0.5761 0.5708
vn -0.7117 0.7016 -0.0349
vn -0.7117 -0.7016 -0.0349
vn -0.7091 0.7016 -0.0698
vn -0.7091 -0.7016 -0.0698
vn -0.7048 0.7016 -0.1045
vn -0.7048 -0.7016 -0.1045
vn -0.6988 0.7016 -0.1390
vn -0.6988 -0.7016 -0.1390
vn -0.6912 0.7016 -0.1731
vn -0.6912 -0.7016 -0.1731
vn -0.6818 0.7016 -0.2068
vn -0.6818 -0.7016 -0.2068
vn -0.6709 0.7016 -0.2400
vn -0.6709 -0.7016 -0.2400
vn -0.6583 0.7016 -0.2727
vn -0.6583 -0.7016 -0.2727
vn -0.6441 0.7016 -0.3046
vn -0.6441 -0.7016 -0.3046
vn -0.6284 0.7016 -0.3359
vn -0.6284 -0.7016 -0.3359
vn -0.6112 0.7016 -0.3663
vn -0.6112 -0.7016 -0.3663
vn -0.5925 0.7016 -0.3959
vn -0.5925 -0.7016 -0.3959
vn -0.5723 0.7016 -0.4245
vn -0.5723 -0.7016 -0.4245
vn -0.5508 0.7016 -0.4520
vn -0.5508 -0.7016 -0.4520
vn -0.5279 0.7016 -0.4785
vn -0.5279 -0.7016 -0.4785
vn -0.5038 0.7016 -0.5038
vn -0.5038 -0.7016 -0.5038
vn -0.4785 0.7016 -0.5279
vn -0.4785 -0.7016 -0.5279
vn -0.4520 0.7016 -0.5508
vn -0.4520 -0.7016 -0.5508
vn -0.4245 0.7016 -0.5723
vn -0.4245 -0.7016 -0.5723
vn -0.3959 0.7016 -0.5925
vn -0.3959 -0.7016 -0.5925
vn -0.3663 0.7016 -0.6112
vn -0.3663 -0.7016 -0.6112
vn -0.3359 0.7016 -0.6284
vn -0.3359 -0.7016 -0.6284
vn -0.3046 0.7016 -0.6441
vn -0.3046 -0.7016 -0.6441
vn -0.2727 0.7016 -0.6583
vn -0.2727 -0.7016 -0.6583
vn -0.2400 0.7016 -0.6709
vn -0.2400 -0.7016 -0.6709
vn -0.2068 0.7016 -0.6818
vn -0.2068 -0.7016 -0.6818
vn -0.1731 0.7016 -0.6912
vn -0.1731 -0.7016 -0.6912
vn -0.1390 0.7016 -0.6988
vn -0.1390 -0.7016 -0.6988
vn -0.1045 0.7016 -0.7048
vn -0.1045 -0.7016 -0.7048
vn -0.0698 0.7016 -0.7091
vn -0.0698 -0.7016 -0.7091
vn -0.0349 0.7016 -0.7117
vn -0.0349 -0.7016 -0.7117
vn 0.0000 0.0000 1.0000
usemtl Material.001
s off
f 1/1/1 3/2/1 5/3/1 7/4/1 9/5/1 11/6/1 13/7/1 15/8/1 17/9/1 19/10/1 21/11/1 23/12/1 25/13/1 27/14/1 29/15/1 31/16/1 33/17/1 35/18/1 37/19/1 39/20/1 41/21/1 43/22/1 45/23/1 47/24/1 49/25/1 51/26/1 53/27/1 55/28/1 57/29/1 59/30/1 61/31/1 63/32/1 65/33/1 67/34/1 69/35/1 71/36/1 73/37/1 75/38/1 77/39/1 79/40/1 81/41/1 83/42/1 85/43/1 87/44/1 89/45/1 91/46/1 93/47/1 95/48/1 97/49/1 99/50/1 101/51/1 103/52/1 105/53/1 107/54/1 109/55/1 111/56/1 113/57/1 115/58/1 117/59/1 119/60/1 121/61/1 123/62/1 125/63/1 127/64/1 129/65/1
f 4/66/2 2/67/2 130/68/2 128/69/2 126/70/2 124/71/2 122/72/2 120/73/2 118/74/2 116/75/2 114/76/2 112/77/2 110/78/2 108/79/2 106/80/2 104/81/2 102/82/2 100/83/2 98/84/2 96/85/2 94/86/2 92/87/2 90/88/2 88/89/2 86/90/2 84/91/2 82/92/2 80/93/2 78/94/2 76/95/2 74/96/2 72/97/2 70/98/2 68/99/2 66/100/2 64/101/2 62/102/2 60/103/2 58/104/2 56/105/2 54/106/2 52/107/2 50/108/2 48/109/2 46/110/2 44/111/2 42/112/2 40/113/2 38/114/2 36/115/2 34/116/2 32/117/2 30/118/2 28/119/2 26/120/2 24/121/2 22/122/2 20/123/2 18/124/2 16/125/2 14/126/2 12/127/2 10/128/2 8/129/2 6/130/2
s 1
f 1/131/3 2/132/4 4/133/5 3/134/6
f 3/134/6 4/133/5 6/135/7 5/136/8
f 5/136/8 6/135/7 8/137/9 7/138/10
f 7/138/10 8/137/9 10/139/11 9/140/12
f 9/140/12 10/139/11 12/141/13 11/142/14
f 11/142/14 12/141/13 14/143/15 13/144/16
f 13/144/16 14/143/15 16/145/17 15/146/18
f 15/146/18 16/145/17 18/147/19 17/148/20
f 17/148/20 18/147/19 20/149/21 19/150/22
f 19/150/22 20/149/21 22/151/23 21/152/24
f 21/152/24 22/151/23 24/153/25 23/154/26
f 23/154/26 24/153/25 26/155/27 25/156/28
f 25/156/28 26/155/27 28/157/29 27/158/30
f 27/158/30 28/157/29 30/159/31 29/160/32
f 29/160/32 30/159/31 32/161/33 31/162/34
f 31/162/34 32/161/33 34/163/35 33/164/36
f 33/164/36 34/163/35 36/165/37 35/166/38
f 35/166/38 36/165/37 38/167/39 37/168/40
f 37/168/40 38/167/39 40/169/41 39/170/42
f 39/170/42 40/169/41 42/171/43 41/172/44
f 41/172/44 42/171/43 44/173/45 43/174/46
f 43/174/46 44/173/45 46/175/47 45/176/48
f 45/176/48 46/175/47 48/177/49 47/178/50
f 47/178/50 48/177/49 50/179/51 49/180/52
f 49/180/52 50/179/51 52/181/53 51/182/54
f 51/182/54 52/181/53 54/183/55 53/184/56
f 53/184/56 54/183/55 56/185/57 55/186/58
f 55/186/58 56/185/57 58/187/59 57/188/60
f 57/188/60 58/187/59 60/189/61 59/190/62
f 59/190/62 60/189/61 62/191/63 61/192/64
f 61/192/64 62/191/63 64/193/65 63/194/66
f 63/194/66 64/193/65 66/195/67 65/196/68
f 67/197/69 68/198/70 70/199/71 69/200/72
f 69/200/72 70/199/71 72/201/73 71/202/74
f 71/202/74 72/201/73 74/203/75 73/204/76
f 73/204/76 74/203/75 76/205/77 75/206/78
f 75/206/78 76/205/77 78/207/79 77/208/80
f 77/208/80 78/207/79 80/209/81 79/210/82
f 79/210/82 80/209/81 82/211/83 81/212/84
f 81/212/84 82/211/83 84/213/85 83/214/86
f 83/214/86 84/213/85 86/215/87 85/216/88
f 85/216/88 86/215/87 88/217/89 87/218/90
f 87/218/90 88/217/89 90/219/91 89/220/92
f 89/220/92 90/219/91 92/221/93 91/222/94
f 91/222/94 92/221/93 94/223/95 93/224/96
f 93/224/96 94/223/95 96/225/97 95/226/98
f 95/226/98 96/225/97 98/227/99 97/228/100
f 97/228/100 98/227/99 100/229/101 99/230/102
f 99/230/102 100/229/101 102/231/103 101/232/104
f 101/232/104 102/231/103 104/233/105 103/234/106
f 103/234/106 104/233/105 106/235/107 105/236/108
f 105/236/108 106/235/107 108/237/109 107/238/110
f 107/238/110 108/237/109 110/239/111 109/240/112
f 109/240/112 110/239/111 112/241/113 111/242/114
f 111/242/114 112/241/113 114/243/115 113/244/116
f 113/244/116 114/243/115 116/245/117 115/246/118
f 115/246/118 116/245/117 118/247/119 117/248/120
f 117/248/120 118/247/119 120/249/121 119/250/122
f 119/250/122 120/249/121 122/251/123 121/252/124
f 121/252/124 122/251/123 124/253/125 123/254/126
f 123/254/126 124/253/125 126/255/127 125/256/128
f 125/256/128 126/255/127 128/257/129 127/258/130
f 127/258/130 128/257/129 130/259/131 129/260/132
f 129/260/132 130/259/131 2/132/4 1/131/3
usemtl Material.002
s off
f 65/33/133 66/100/133 68/99/133 67/34/133
